<svg width="26" height="26" viewBox="0 0 26 26" fill="none" xmlns="http://www.w3.org/2000/svg">
<path d="M9.30583 14.6358L16.705 18.9475M16.6942 7.0525L9.30583 11.3642M22.75 5.41667C22.75 7.21159 21.2949 8.66667 19.5 8.66667C17.7051 8.66667 16.25 7.21159 16.25 5.41667C16.25 3.62174 17.7051 2.16667 19.5 2.16667C21.2949 2.16667 22.75 3.62174 22.75 5.41667ZM9.75 13C9.75 14.7949 8.29493 16.25 6.5 16.25C4.70507 16.25 3.25 14.7949 3.25 13C3.25 11.2051 4.70507 9.75 6.5 9.75C8.29493 9.75 9.75 11.2051 9.75 13ZM22.75 20.5833C22.75 22.3783 21.2949 23.8333 19.5 23.8333C17.7051 23.8333 16.25 22.3783 16.25 20.5833C16.25 18.7884 17.7051 17.3333 19.5 17.3333C21.2949 17.3333 22.75 18.7884 22.75 20.5833Z" stroke="#757575" stroke-width="2.5" stroke-linecap="round" stroke-linejoin="round"/>
</svg>
