<svg width="145" height="16" viewBox="0 0 145 16" fill="none" xmlns="http://www.w3.org/2000/svg">
<path d="M63.8521 12.6951C63.1762 12.6951 62.5618 12.5415 62.0088 12.2343C61.4645 11.9271 61.0344 11.4926 60.7184 10.9308C60.4112 10.3602 60.2576 9.70186 60.2576 8.95574C60.2576 8.21839 60.4156 7.56883 60.7316 7.00704C61.0564 6.43647 61.4953 6.00197 62.0483 5.70352C62.6013 5.39629 63.2201 5.24268 63.9048 5.24268C64.5895 5.24268 65.2083 5.39629 65.7613 5.70352C66.3143 6.00197 66.7488 6.43208 67.0649 6.99387C67.3896 7.55566 67.552 8.20961 67.552 8.95574C67.552 9.70186 67.3852 10.3602 67.0517 10.9308C66.7269 11.4926 66.2836 11.9271 65.7218 12.2343C65.16 12.5415 64.5368 12.6951 63.8521 12.6951ZM63.8521 11.6418C64.2823 11.6418 64.686 11.5408 65.0635 11.3389C65.4409 11.137 65.7438 10.8342 65.972 10.4304C66.209 10.0266 66.3275 9.53508 66.3275 8.95574C66.3275 8.37639 66.2134 7.88483 65.9852 7.48105C65.7569 7.07726 65.4585 6.77881 65.0898 6.5857C64.7211 6.38381 64.3218 6.28286 63.8916 6.28286C63.4527 6.28286 63.049 6.38381 62.6803 6.5857C62.3204 6.77881 62.0307 7.07726 61.8113 7.48105C61.5918 7.88483 61.4821 8.37639 61.4821 8.95574C61.4821 9.54386 61.5874 10.0398 61.7981 10.4436C62.0175 10.8474 62.3072 11.1502 62.6671 11.3521C63.027 11.5452 63.422 11.6418 63.8521 11.6418Z" fill="white"/>
<path d="M51.7207 8.94244C51.7207 8.20509 51.8699 7.55992 52.1683 7.00691C52.4668 6.44512 52.875 6.01061 53.3929 5.70339C53.9195 5.39616 54.5076 5.24255 55.1572 5.24255C55.719 5.24255 56.2413 5.37422 56.7241 5.63755C57.2069 5.89211 57.5755 6.23006 57.8301 6.6514V2.83301H59.0414V12.5765H57.8301V11.2203C57.5931 11.6504 57.242 12.0059 56.7767 12.2868C56.3115 12.5589 55.7673 12.695 55.144 12.695C54.5033 12.695 53.9195 12.537 53.3929 12.221C52.875 11.905 52.4668 11.4617 52.1683 10.8911C51.8699 10.3206 51.7207 9.67101 51.7207 8.94244ZM57.8301 8.95561C57.8301 8.41138 57.7204 7.93737 57.5009 7.53358C57.2815 7.1298 56.983 6.82257 56.6056 6.6119C56.2369 6.39245 55.8287 6.28273 55.381 6.28273C54.9334 6.28273 54.5252 6.38806 54.1565 6.59873C53.7879 6.8094 53.4938 7.11663 53.2743 7.52042C53.0549 7.9242 52.9452 8.39821 52.9452 8.94244C52.9452 9.49545 53.0549 9.97823 53.2743 10.3908C53.4938 10.7946 53.7879 11.1062 54.1565 11.3256C54.5252 11.5363 54.9334 11.6416 55.381 11.6416C55.8287 11.6416 56.2369 11.5363 56.6056 11.3256C56.983 11.1062 57.2815 10.7946 57.5009 10.3908C57.7204 9.97823 57.8301 9.49984 57.8301 8.95561Z" fill="white"/>
<path d="M50.2309 8.6924C50.2309 8.92062 50.2178 9.16202 50.1914 9.41658H44.4243C44.4682 10.1276 44.7096 10.685 45.1485 11.0888C45.5962 11.4838 46.136 11.6813 46.7681 11.6813C47.2859 11.6813 47.7161 11.5628 48.0584 11.3258C48.4095 11.08 48.6553 10.7552 48.7958 10.3514H50.0861C49.893 11.0449 49.5068 11.6111 48.9274 12.05C48.3481 12.4801 47.6283 12.6951 46.7681 12.6951C46.0834 12.6951 45.4689 12.5415 44.9247 12.2343C44.3892 11.9271 43.9679 11.4926 43.6607 10.9308C43.3534 10.3602 43.1998 9.70186 43.1998 8.95574C43.1998 8.20961 43.3491 7.55566 43.6475 6.99387C43.946 6.43208 44.3629 6.00197 44.8984 5.70352C45.4426 5.39629 46.0658 5.24268 46.7681 5.24268C47.4527 5.24268 48.0584 5.3919 48.5851 5.69035C49.1118 5.9888 49.5155 6.40136 49.7964 6.92804C50.0861 7.44593 50.2309 8.03406 50.2309 8.6924ZM48.9933 8.44223C48.9933 7.98578 48.8923 7.59516 48.6904 7.27038C48.4885 6.93681 48.212 6.68664 47.8609 6.51986C47.5186 6.34431 47.1367 6.25653 46.7154 6.25653C46.1097 6.25653 45.5918 6.44964 45.1617 6.83587C44.7404 7.2221 44.499 7.75755 44.4375 8.44223H48.9933Z" fill="white"/>
<path d="M41.4365 5.36102V12.5765H40.2383V11.51C40.0101 11.8786 39.6897 12.1683 39.2771 12.379C38.8733 12.5809 38.4257 12.6818 37.9341 12.6818C37.3723 12.6818 36.8676 12.5677 36.4199 12.3395C35.9722 12.1025 35.6167 11.7513 35.3534 11.2861C35.0988 10.8209 34.9716 10.2547 34.9716 9.58759V5.36102H36.1566V9.42959C36.1566 10.1406 36.3365 10.6892 36.6964 11.0754C37.0563 11.4529 37.5479 11.6416 38.1711 11.6416C38.8119 11.6416 39.3166 11.4441 39.6853 11.0491C40.054 10.6541 40.2383 10.0792 40.2383 9.32425V5.36102H41.4365Z" fill="white"/>
<path d="M25.6135 8.94257C25.6135 8.20522 25.7627 7.56005 26.0612 7.00704C26.3596 6.44525 26.7678 6.01074 27.2857 5.70352C27.8124 5.39629 28.4005 5.24268 29.0501 5.24268C29.6733 5.24268 30.2175 5.38312 30.6827 5.66402C31.1568 5.93613 31.5035 6.27408 31.7229 6.67787V5.36118H32.9343V16H31.7229V11.2468C31.4947 11.6506 31.1436 11.9929 30.6696 12.2738C30.1956 12.5547 29.6426 12.6951 29.0105 12.6951C28.3785 12.6951 27.8036 12.5371 27.2857 12.2211C26.7678 11.9051 26.3596 11.4618 26.0612 10.8913C25.7627 10.3207 25.6135 9.67114 25.6135 8.94257ZM31.7229 8.95574C31.7229 8.41151 31.6132 7.9375 31.3938 7.53371C31.1743 7.12993 30.8759 6.8227 30.4984 6.61203C30.1297 6.39258 29.7216 6.28286 29.2739 6.28286C28.8262 6.28286 28.418 6.38819 28.0494 6.59886C27.6807 6.80954 27.3866 7.11676 27.1672 7.52055C26.9477 7.92433 26.838 8.39834 26.838 8.94257C26.838 9.49558 26.9477 9.97836 27.1672 10.3909C27.3866 10.7947 27.6807 11.1063 28.0494 11.3258C28.418 11.5364 28.8262 11.6418 29.2739 11.6418C29.7216 11.6418 30.1297 11.5364 30.4984 11.3258C30.8759 11.1063 31.1743 10.7947 31.3938 10.3909C31.6132 9.97836 31.7229 9.49997 31.7229 8.95574Z" fill="white"/>
<path d="M21.1745 5.22949C22.0523 5.22949 22.7633 5.49722 23.3075 6.03267C23.8518 6.55935 24.1239 7.32303 24.1239 8.32371V12.5766H22.9389V8.49488C22.9389 7.77509 22.7589 7.22647 22.399 6.84902C22.0391 6.46279 21.5476 6.26968 20.9243 6.26968C20.2923 6.26968 19.7876 6.46718 19.4101 6.86219C19.0415 7.25719 18.8571 7.83215 18.8571 8.58705V12.5766H17.6589V5.36116H18.8571V6.38818C19.0941 6.01951 19.4145 5.73422 19.8183 5.53233C20.2309 5.33044 20.6829 5.22949 21.1745 5.22949Z" fill="white"/>
<path d="M14.8317 4.18921C14.6035 4.18921 14.4104 4.11021 14.2524 3.95221C14.0944 3.79421 14.0154 3.60109 14.0154 3.37286C14.0154 3.14464 14.0944 2.95153 14.2524 2.79352C14.4104 2.63552 14.6035 2.55652 14.8317 2.55652C15.0512 2.55652 15.2355 2.63552 15.3847 2.79352C15.5427 2.95153 15.6217 3.14464 15.6217 3.37286C15.6217 3.60109 15.5427 3.79421 15.3847 3.95221C15.2355 4.11021 15.0512 4.18921 14.8317 4.18921ZM15.4111 5.36106V12.5765H14.2129V5.36106H15.4111Z" fill="white"/>
<path d="M9.64778 6.53301C9.85845 6.12045 10.1569 5.80006 10.5431 5.57183C10.9381 5.34361 11.4165 5.22949 11.9783 5.22949V6.46718H11.6623C10.3193 6.46718 9.64778 7.19575 9.64778 8.65288V12.5766H8.44959V5.36116H9.64778V6.53301Z" fill="white"/>
<path d="M4.59524 7.84964C4.9288 7.9023 5.23164 8.03836 5.50376 8.25781C5.78465 8.47726 6.0041 8.74937 6.1621 9.07416C6.32888 9.39894 6.41227 9.74567 6.41227 10.1143C6.41227 10.5796 6.29377 11.0009 6.05676 11.3784C5.81976 11.747 5.47303 12.0411 5.01658 12.2605C4.56891 12.4712 4.03784 12.5765 3.42339 12.5765H0V3.39923H3.29172C3.91495 3.39923 4.44602 3.50457 4.88491 3.71524C5.32381 3.91713 5.65298 4.19363 5.87243 4.54475C6.09188 4.89587 6.2016 5.29087 6.2016 5.72977C6.2016 6.274 6.05238 6.72606 5.75393 7.08596C5.46426 7.43707 5.07803 7.69163 4.59524 7.84964ZM1.19819 7.36246H3.21272C3.77451 7.36246 4.20901 7.23079 4.51624 6.96745C4.82347 6.70412 4.97708 6.33983 4.97708 5.8746C4.97708 5.40937 4.82347 5.04509 4.51624 4.78175C4.20901 4.51842 3.76573 4.38675 3.18638 4.38675H1.19819V7.36246ZM3.31805 11.589C3.91495 11.589 4.38018 11.4486 4.71374 11.1677C5.0473 10.8868 5.21408 10.4962 5.21408 9.99584C5.21408 9.48672 5.03853 9.08732 4.68741 8.79765C4.33629 8.4992 3.86667 8.34998 3.27855 8.34998H1.19819V11.589H3.31805Z" fill="white"/>
<path d="M129.114 3.06997C129.839 3.06997 130.483 3.23094 131.046 3.55289C131.609 3.86334 132.046 4.32901 132.357 4.9499C132.679 5.5593 132.84 6.29517 132.84 7.15752V12.7628H130.425V7.48521C130.425 6.72635 130.235 6.14569 129.856 5.74326C129.476 5.32933 128.959 5.12237 128.304 5.12237C127.637 5.12237 127.108 5.32933 126.717 5.74326C126.337 6.14569 126.148 6.72635 126.148 7.48521V12.7628H123.733V0H126.148V4.39799C126.458 3.98407 126.872 3.66212 127.39 3.43216C127.907 3.1907 128.482 3.06997 129.114 3.06997Z" fill="white"/>
<path d="M117.97 3.07001C119.109 3.07001 120.028 3.4322 120.73 4.15657C121.431 4.86945 121.782 5.86978 121.782 7.15756V12.7628H119.367V7.48525C119.367 6.72638 119.178 6.14573 118.798 5.7433C118.419 5.32937 117.901 5.12241 117.246 5.12241C116.579 5.12241 116.05 5.32937 115.659 5.7433C115.28 6.14573 115.09 6.72638 115.09 7.48525V12.7628H112.675V3.20798H115.09V4.39803C115.412 3.9841 115.82 3.66216 116.315 3.4322C116.82 3.19074 117.372 3.07001 117.97 3.07001Z" fill="white"/>
<path d="M100.711 7.95083C100.711 6.985 100.901 6.1284 101.28 5.38102C101.671 4.63365 102.194 4.05875 102.85 3.65632C103.516 3.25389 104.258 3.05267 105.074 3.05267C105.787 3.05267 106.408 3.1964 106.937 3.48385C107.478 3.7713 107.909 4.13349 108.231 4.57041V3.2079H110.662V12.7628H108.231V11.3657C107.92 11.8142 107.489 12.1879 106.937 12.4868C106.397 12.7743 105.77 12.918 105.057 12.918C104.252 12.918 103.516 12.711 102.85 12.2971C102.194 11.8832 101.671 11.3025 101.28 10.5551C100.901 9.79627 100.711 8.92816 100.711 7.95083ZM108.231 7.98533C108.231 7.39893 108.116 6.89876 107.886 6.48484C107.656 6.05941 107.345 5.73746 106.954 5.519C106.563 5.28904 106.144 5.17406 105.695 5.17406C105.247 5.17406 104.833 5.28329 104.454 5.50175C104.074 5.72022 103.764 6.04216 103.522 6.46759C103.292 6.88152 103.177 7.37593 103.177 7.95083C103.177 8.52573 103.292 9.03165 103.522 9.46857C103.764 9.894 104.074 10.2217 104.454 10.4517C104.844 10.6816 105.258 10.7966 105.695 10.7966C106.144 10.7966 106.563 10.6874 106.954 10.4689C107.345 10.2389 107.656 9.917 107.886 9.50307C108.116 9.07764 108.231 8.57173 108.231 7.98533Z" fill="white"/>
<path d="M97.1181 4.69123C97.4285 4.18532 97.831 3.78863 98.3254 3.50118C98.8313 3.21373 99.4062 3.07001 100.05 3.07001V5.60532H99.4119C98.6531 5.60532 98.0782 5.78354 97.6872 6.13998C97.3078 6.49642 97.1181 7.11731 97.1181 8.00266V12.7628H94.7035V3.20798H97.1181V4.69123Z" fill="white"/>
<path d="M91.1736 5.19141V9.81362C91.1736 10.1356 91.2483 10.3713 91.3978 10.5207C91.5588 10.6587 91.8232 10.7277 92.1912 10.7277H93.3122V12.7629H91.7945C89.7593 12.7629 88.7418 11.774 88.7418 9.79637V5.19141H87.6035V3.208H88.7418V0.845154H91.1736V3.208H93.3122V5.19141H91.1736Z" fill="white"/>
<path d="M72.8887 2.67332V5.69155H76.9418V7.60597H72.8887V10.7967H77.4592V12.7628H70.4741V0.707153H77.4592V2.67332H72.8887Z" fill="white"/>
<path d="M82.8183 13.0464C82.0364 13.0464 81.3351 12.9084 80.7142 12.6325C80.0933 12.345 79.5989 11.9598 79.2309 11.4769C78.8745 10.994 78.7153 10.4593 78.6808 9.87294C78.6808 9.87294 78.7833 8.95885 79.8179 8.95885C80.8526 8.95885 81.0764 9.87294 81.0764 9.87294C81.1223 10.2409 81.3006 10.5456 81.611 10.787C81.933 11.0285 82.3296 11.1492 82.8011 11.1492C83.261 11.1492 83.6174 11.0572 83.8704 10.8733C84.1348 10.6893 84.2671 10.4536 84.2671 10.1661C84.2671 9.8557 84.1061 9.62574 83.7841 9.47626C83.4737 9.31529 82.9735 9.14282 82.2836 8.95885C81.5708 8.78638 80.9844 8.60816 80.5245 8.42419C80.076 8.24022 79.6851 7.95852 79.3517 7.57909C79.0297 7.19965 78.8687 6.68799 78.8687 6.0441C78.8687 5.51519 79.0182 5.03227 79.3172 4.59535C79.6276 4.15842 80.0645 3.81348 80.6279 3.56053C81.2028 3.30757 81.8755 3.18109 82.6458 3.18109C83.7841 3.18109 84.6925 3.46854 85.3709 4.04344C86.0493 4.60685 86.4229 5.37147 86.4919 6.3373C86.4919 6.3373 86.498 7.25139 85.2907 7.25139C84.0834 7.25139 84.1808 6.3373 84.1808 6.3373C84.1463 5.95787 83.9854 5.65892 83.6979 5.44045C83.422 5.21049 83.0483 5.09551 82.5768 5.09551C82.1399 5.09551 81.8007 5.176 81.5593 5.33697C81.3293 5.49794 81.2143 5.72216 81.2143 6.00961C81.2143 6.33155 81.3753 6.57876 81.6972 6.75123C82.0192 6.9122 82.5194 7.07892 83.1977 7.25139C83.8876 7.42386 84.4568 7.60208 84.9052 7.78605C85.3536 7.97002 85.7388 8.25747 86.0608 8.6484C86.3942 9.02784 86.5667 9.53375 86.5782 10.1661C86.5782 10.718 86.4229 11.2125 86.1125 11.6494C85.8135 12.0863 85.3766 12.4313 84.8017 12.6842C84.2383 12.9257 83.5772 13.0464 82.8183 13.0464Z" fill="white"/>
<path d="M139.355 3.26746C140.255 3.26748 141.071 3.46998 141.802 3.87488C142.533 4.26855 143.106 4.83128 143.522 5.56238C143.95 6.29341 144.164 7.13672 144.164 8.09265C144.164 9.04872 143.944 9.89279 143.506 10.6239C143.078 11.3549 142.493 11.9231 141.751 12.328C141.02 12.7215 140.199 12.9178 139.288 12.9178C138.388 12.9178 137.578 12.7216 136.858 12.328C136.139 11.9231 135.57 11.3549 135.154 10.6239C134.749 9.89279 134.547 9.04872 134.547 8.09265C134.547 7.1368 134.755 6.29337 135.171 5.56238C135.598 4.83127 136.178 4.26855 136.909 3.87488C137.64 3.47002 138.456 3.26746 139.355 3.26746ZM140.187 7.14246C139.569 7.14246 139.049 7.33398 138.626 7.71765C138.214 8.09252 138.007 8.63268 138.007 9.33777C138.007 10.0429 138.208 10.5877 138.61 10.9716C139.023 11.3463 139.538 11.534 140.156 11.5341C140.548 11.5341 140.915 11.4535 141.255 11.2928C141.605 11.1233 141.884 10.873 142.09 10.5428C142.296 10.2126 142.398 9.81075 142.398 9.33777C142.398 8.63268 142.182 8.09252 141.749 7.71765C141.326 7.33397 140.806 7.14246 140.187 7.14246ZM138.493 4.55359C138.116 4.5402 137.719 4.64743 137.303 4.87488C136.886 5.10242 136.581 5.37855 136.389 5.703C136.201 6.01971 136.192 6.33303 136.361 6.64343C136.531 6.95386 136.797 7.11944 137.16 7.1405C137.528 7.15381 137.92 7.04671 138.337 6.81921C138.601 6.6751 138.829 6.50533 139.019 6.30945C139.215 6.10606 139.342 5.89372 139.401 5.67273C139.461 5.45149 139.434 5.23646 139.32 5.0282C139.151 4.7178 138.875 4.55934 138.493 4.55359Z" fill="white"/>
</svg>
