<svg width="600" height="204" viewBox="0 0 600 204" fill="none" xmlns="http://www.w3.org/2000/svg">
<path d="M545.676 82.5511C540.172 82.5511 535.169 81.3003 530.666 78.7988C526.235 76.2972 522.733 72.7594 520.16 68.1851C517.659 63.5394 516.408 58.179 516.408 52.1038C516.408 46.1002 517.694 40.8112 520.267 36.237C522.912 31.5913 526.485 28.0534 530.988 25.6233C535.491 23.1218 540.53 21.871 546.105 21.871C551.679 21.871 556.718 23.1218 561.221 25.6233C565.724 28.0534 569.262 31.5555 571.835 36.1298C574.479 40.704 575.801 46.0287 575.801 52.1038C575.801 58.179 574.443 63.5394 571.727 68.1851C569.083 72.7594 565.474 76.2972 560.899 78.7988C556.325 81.3003 551.251 82.5511 545.676 82.5511ZM545.676 73.9744C549.178 73.9744 552.466 73.1525 555.539 71.5086C558.612 69.8647 561.078 67.3989 562.936 64.1112C564.866 60.8235 565.831 56.821 565.831 52.1038C565.831 47.3867 564.902 43.3842 563.043 40.0965C561.185 36.8087 558.755 34.3787 555.753 32.8063C552.751 31.1624 549.499 30.3405 545.997 30.3405C542.424 30.3405 539.136 31.1624 536.134 32.8063C533.204 34.3787 530.845 36.8087 529.058 40.0965C527.272 43.3842 526.378 47.3867 526.378 52.1038C526.378 56.8925 527.236 60.9307 528.951 64.2184C530.738 67.5061 533.097 69.9719 536.027 71.6158C538.957 73.1882 542.174 73.9744 545.676 73.9744Z" fill="#5D5D5D"/>
<path d="M446.899 51.996C446.899 45.9923 448.114 40.7391 450.544 36.2364C452.974 31.6621 456.297 28.1242 460.514 25.6227C464.802 23.1212 469.591 21.8704 474.88 21.8704C479.454 21.8704 483.707 22.9425 487.638 25.0867C491.569 27.1594 494.571 29.9111 496.643 33.3417V2.25125H506.507V81.5856H496.643V70.5431C494.714 74.0452 491.855 76.9399 488.067 79.227C484.279 81.4426 479.847 82.5505 474.773 82.5505C469.555 82.5505 464.802 81.2639 460.514 78.6909C456.297 76.1179 452.974 72.5086 450.544 67.8629C448.114 63.2172 446.899 57.9282 446.899 51.996ZM496.643 52.1032C496.643 47.6719 495.75 43.8124 493.963 40.5247C492.176 37.237 489.746 34.7354 486.673 33.0201C483.671 31.2333 480.348 30.3399 476.703 30.3399C473.057 30.3399 469.734 31.1976 466.732 32.9129C463.73 34.6282 461.336 37.1298 459.549 40.4175C457.762 43.7052 456.869 47.5647 456.869 51.996C456.869 56.4988 457.762 60.4298 459.549 63.789C461.336 67.0767 463.73 69.614 466.732 71.4008C469.734 73.1161 473.057 73.9738 476.703 73.9738C480.348 73.9738 483.671 73.1161 486.673 71.4008C489.746 69.614 492.176 67.0767 493.963 63.789C495.75 60.4298 496.643 56.5345 496.643 52.1032Z" fill="#5D5D5D"/>
<path d="M434.771 49.9597C434.771 51.8179 434.663 53.7834 434.449 55.8561H387.492C387.849 61.6454 389.814 66.1839 393.388 69.4716C397.033 72.6879 401.429 74.296 406.575 74.296C410.792 74.296 414.294 73.3311 417.081 71.4014C419.94 69.4002 421.941 66.7557 423.085 63.4679H433.591C432.019 69.1143 428.874 73.7242 424.157 77.2979C419.44 80.8 413.579 82.5511 406.575 82.5511C401 82.5511 395.997 81.3003 391.566 78.7988C387.206 76.2972 383.775 72.7594 381.273 68.1851C378.772 63.5394 377.521 58.179 377.521 52.1038C377.521 46.0287 378.736 40.704 381.166 36.1298C383.596 31.5555 386.991 28.0534 391.351 25.6233C395.782 23.1218 400.857 21.871 406.575 21.871C412.15 21.871 417.081 23.0861 421.369 25.5161C425.658 27.9462 428.946 31.3054 431.233 35.5937C433.591 39.8106 434.771 44.5992 434.771 49.9597ZM424.693 47.9227C424.693 44.2061 423.871 41.0256 422.227 38.3811C420.583 35.6652 418.332 33.6282 415.473 32.2703C412.686 30.8408 409.577 30.1261 406.146 30.1261C401.214 30.1261 396.997 31.6985 393.495 34.8433C390.065 37.988 388.099 42.3479 387.599 47.9227H424.693Z" fill="#5D5D5D"/>
<path d="M363.162 22.8354V81.5857H353.406V72.9018C351.548 75.9036 348.939 78.2622 345.58 79.9775C342.292 81.6214 338.647 82.4433 334.645 82.4433C330.07 82.4433 325.961 81.5142 322.316 79.6559C318.67 77.7262 315.776 74.8673 313.632 71.0792C311.559 67.2912 310.523 62.6812 310.523 57.2493V22.8354H320.171V55.9628C320.171 61.7521 321.637 66.2191 324.567 69.3639C327.497 72.4372 331.5 73.9739 336.574 73.9739C341.792 73.9739 345.901 72.3657 348.903 69.1495C351.905 65.9332 353.406 61.2518 353.406 55.1052V22.8354H363.162Z" fill="#5D5D5D"/>
<path d="M234.327 51.9966C234.327 45.9929 235.542 40.7397 237.972 36.237C240.402 31.6627 243.726 28.1249 247.942 25.6233C252.231 23.1218 257.019 21.871 262.308 21.871C267.383 21.871 271.814 23.0146 275.602 25.3017C279.462 27.5173 282.285 30.269 284.072 33.5568V22.8359H293.935V109.46H284.072V70.7581C282.213 74.0459 279.355 76.8333 275.495 79.1204C271.636 81.4075 267.133 82.5511 261.987 82.5511C256.841 82.5511 252.159 81.2646 247.942 78.6916C243.726 76.1185 240.402 72.5092 237.972 67.8635C235.542 63.2178 234.327 57.9288 234.327 51.9966ZM284.072 52.1038C284.072 47.6725 283.178 43.813 281.392 40.5253C279.605 37.2376 277.175 34.736 274.101 33.0207C271.1 31.2339 267.776 30.3405 264.131 30.3405C260.486 30.3405 257.162 31.1982 254.161 32.9135C251.159 34.6288 248.764 37.1304 246.978 40.4181C245.191 43.7058 244.297 47.5653 244.297 51.9966C244.297 56.4994 245.191 60.4304 246.978 63.7896C248.764 67.0773 251.159 69.6146 254.161 71.4014C257.162 73.1167 260.486 73.9744 264.131 73.9744C267.776 73.9744 271.1 73.1167 274.101 71.4014C277.175 69.6146 279.605 67.0773 281.392 63.7896C283.178 60.4304 284.072 56.5351 284.072 52.1038Z" fill="#5D5D5D"/>
<path d="M198.184 21.7636C205.331 21.7636 211.12 23.9435 215.551 28.3034C219.983 32.5917 222.198 38.8098 222.198 46.9577V81.586H212.55V48.3514C212.55 42.4906 211.084 38.0236 208.154 34.9503C205.224 31.8055 201.221 30.2331 196.147 30.2331C191.001 30.2331 186.891 31.8412 183.818 35.0575C180.816 38.2738 179.315 42.9552 179.315 49.1018V81.586H169.559V22.8357H179.315V31.198C181.245 28.1962 183.853 25.8733 187.141 24.2294C190.5 22.5856 194.181 21.7636 198.184 21.7636Z" fill="#5D5D5D"/>
<path d="M146.539 13.2939C144.681 13.2939 143.109 12.6506 141.822 11.3641C140.536 10.0776 139.892 8.50521 139.892 6.64693C139.892 4.78865 140.536 3.21626 141.822 1.92975C143.109 0.643252 144.681 0 146.539 0C148.326 0 149.827 0.643252 151.042 1.92975C152.329 3.21626 152.972 4.78865 152.972 6.64693C152.972 8.50521 152.329 10.0776 151.042 11.3641C149.827 12.6506 148.326 13.2939 146.539 13.2939ZM151.257 22.8354V81.5857H141.501V22.8354H151.257Z" fill="#5D5D5D"/>
<path d="M104.329 32.3773C106.044 29.0181 108.474 26.4093 111.619 24.5511C114.835 22.6928 118.731 21.7636 123.305 21.7636V31.8412H120.732C109.797 31.8412 104.329 37.7735 104.329 49.6379V81.586H94.5729V22.8357H104.329V32.3773Z" fill="#5D5D5D"/>
<path d="M63.1896 43.0983C65.9055 43.5271 68.3713 44.6349 70.587 46.4217C72.8741 48.2086 74.6609 50.4242 75.9474 53.0687C77.3054 55.7132 77.9844 58.5363 77.9844 61.5381C77.9844 65.3262 77.0195 68.7569 75.0897 71.8302C73.16 74.832 70.3368 77.2263 66.6203 79.0131C62.9752 80.7285 58.6511 81.5861 53.648 81.5861H25.7738V6.86179H52.5759C57.6505 6.86179 61.9746 7.71945 65.5482 9.43479C69.1218 11.0787 71.802 13.33 73.5888 16.1889C75.3756 19.0478 76.269 22.2641 76.269 25.8377C76.269 30.269 75.054 33.9498 72.6239 36.8802C70.2654 39.7391 67.1206 41.8118 63.1896 43.0983ZM35.5298 39.1316H51.9327C56.5069 39.1316 60.0448 38.0595 62.5463 35.9153C65.0479 33.7711 66.2986 30.805 66.2986 27.017C66.2986 23.229 65.0479 20.2629 62.5463 18.1187C60.0448 15.9745 56.4355 14.9024 51.7183 14.9024H35.5298V39.1316ZM52.7904 73.5455C57.6505 73.5455 61.4385 72.402 64.1545 70.1148C66.8704 67.8277 68.2284 64.6472 68.2284 60.5733C68.2284 56.4279 66.7989 53.1759 63.9401 50.8173C61.0812 48.3872 57.2574 47.1722 52.4687 47.1722H35.5298V73.5455H52.7904Z" fill="#5D5D5D"/>
<path d="M477.466 122.08C483.364 122.08 488.606 123.39 493.194 126.012C497.781 128.539 501.339 132.331 503.867 137.387C506.488 142.348 507.799 148.34 507.799 155.362V201.002H488.138V158.03C488.138 151.851 486.594 147.123 483.504 143.846C480.415 140.476 476.202 138.791 470.865 138.791C465.435 138.791 461.129 140.476 457.946 143.846C454.856 147.123 453.312 151.851 453.312 158.03V201.002H433.651V97.083H453.312V132.893C455.839 129.522 459.21 126.901 463.423 125.029C467.635 123.063 472.316 122.08 477.466 122.08Z" fill="#D59200"/>
<path d="M386.729 122.08C395.997 122.08 403.487 125.029 409.198 130.927C414.909 136.731 417.764 144.876 417.764 155.362V201.002H398.104V158.03C398.104 151.851 396.559 147.123 393.47 143.846C390.38 140.476 386.167 138.791 380.831 138.791C375.401 138.791 371.094 140.476 367.911 143.846C364.822 147.123 363.277 151.851 363.277 158.03V201.002H343.617V123.203H363.277V132.893C365.899 129.522 369.222 126.901 373.248 125.029C377.367 123.063 381.861 122.08 386.729 122.08Z" fill="#D59200"/>
<path d="M246.196 161.822C246.196 153.958 247.741 146.983 250.83 140.898C254.013 134.812 258.273 130.131 263.609 126.855C269.039 123.578 275.078 121.94 281.725 121.94C287.529 121.94 292.585 123.11 296.891 125.45C301.291 127.791 304.802 130.74 307.424 134.297V123.203H327.224V201.002H307.424V189.627C304.896 193.278 301.385 196.321 296.891 198.755C292.491 201.096 287.389 202.266 281.584 202.266C275.031 202.266 269.039 200.581 263.609 197.21C258.273 193.84 254.013 189.112 250.83 183.027C247.741 176.848 246.196 169.78 246.196 161.822ZM307.424 162.103C307.424 157.328 306.487 153.256 304.615 149.885C302.743 146.421 300.215 143.8 297.032 142.021C293.849 140.149 290.431 139.213 286.78 139.213C283.129 139.213 279.759 140.102 276.669 141.881C273.58 143.66 271.052 146.281 269.086 149.745C267.214 153.115 266.277 157.141 266.277 161.822C266.277 166.503 267.214 170.622 269.086 174.18C271.052 177.644 273.58 180.312 276.669 182.184C279.852 184.057 283.223 184.993 286.78 184.993C290.431 184.993 293.849 184.103 297.032 182.325C300.215 180.452 302.743 177.831 304.615 174.461C306.487 170.997 307.424 166.877 307.424 162.103Z" fill="#D59200"/>
<path d="M216.944 135.28C219.472 131.161 222.748 127.931 226.774 125.59C230.893 123.25 235.574 122.08 240.817 122.08V142.723H235.621C229.442 142.723 224.761 144.174 221.578 147.076C218.489 149.978 216.944 155.034 216.944 162.243V201.002H197.284V123.203H216.944V135.28Z" fill="#D59200"/>
<path d="M168.539 139.353V176.988C168.539 179.61 169.148 181.529 170.365 182.746C171.676 183.869 173.829 184.431 176.825 184.431H185.953V201.002H173.595C157.024 201.002 148.739 192.95 148.739 176.848V139.353H139.47V123.203H148.739V103.964H168.539V123.203H185.953V139.353H168.539Z" fill="#D59200"/>
<path d="M19.6603 118.85V143.425H52.6615V159.013H19.6603V184.993H56.8744V201.002H6.10352e-05V102.841H56.8744V118.85H19.6603Z" fill="#D59200"/>
<path d="M100.51 203.311C94.1434 203.311 88.4326 202.187 83.3771 199.94C78.3216 197.6 74.2959 194.464 71.3 190.532C68.3978 186.6 67.1016 182.246 66.8207 177.472C66.8207 177.472 67.6555 170.029 76.0798 170.029C84.504 170.029 86.3261 177.472 86.3261 177.472C86.7006 180.467 88.1517 182.948 90.6794 184.914C93.3008 186.88 96.5307 187.863 100.369 187.863C104.114 187.863 107.016 187.114 109.076 185.617C111.229 184.119 112.306 182.199 112.306 179.859C112.306 177.331 110.995 175.459 108.374 174.242C105.846 172.931 101.773 171.527 96.1562 170.029C90.3518 168.624 85.5771 167.173 81.8323 165.675C78.1811 164.177 74.998 161.884 72.2831 158.794C69.6617 155.705 68.351 151.539 68.351 146.296C68.351 141.989 69.5681 138.057 72.0022 134.5C74.5299 130.942 78.0875 128.134 82.6749 126.074C87.3559 124.014 92.8327 122.985 99.1053 122.985C108.374 122.985 115.77 125.325 121.293 130.006C126.817 134.593 129.86 140.819 130.421 148.683C130.421 148.683 130.47 156.126 120.64 156.126C110.81 156.126 111.604 148.683 111.604 148.683C111.323 145.594 110.012 143.16 107.672 141.381C105.425 139.509 102.382 138.572 98.5436 138.572C94.986 138.572 92.2242 139.228 90.2582 140.538C88.3857 141.849 87.4495 143.675 87.4495 146.015C87.4495 148.637 88.7602 150.649 91.3816 152.054C94.003 153.364 98.0754 154.722 103.599 156.126C109.216 157.53 113.85 158.982 117.502 160.479C121.153 161.977 124.289 164.318 126.91 167.501C129.625 170.59 131.03 174.71 131.123 179.859C131.123 184.353 129.86 188.378 127.332 191.936C124.898 195.493 121.34 198.302 116.659 200.362C112.072 202.328 106.689 203.311 100.51 203.311Z" fill="#D59200"/>
<path d="M560.848 123.687C568.175 123.687 574.815 125.336 580.768 128.633C586.721 131.838 591.391 136.417 594.78 142.37C598.26 148.323 600.001 155.192 600.001 162.977C600.001 170.761 598.215 177.63 594.643 183.583C591.163 189.536 586.4 194.161 580.356 197.458C574.403 200.663 567.718 202.266 560.299 202.266C552.973 202.266 546.378 200.663 540.517 197.458C534.656 194.161 530.031 189.536 526.642 183.583C523.345 177.63 521.697 170.761 521.697 162.977C521.697 155.192 523.391 148.323 526.78 142.37C530.26 136.417 534.976 131.838 540.929 128.633C546.882 125.336 553.522 123.688 560.848 123.687ZM567.626 155.236C562.59 155.236 558.351 156.799 554.91 159.924C551.552 162.976 549.874 167.374 549.874 173.115C549.874 178.856 551.51 183.29 554.784 186.415C558.141 189.467 562.338 190.993 567.374 190.993C570.563 190.993 573.543 190.339 576.313 189.031C579.167 187.65 581.433 185.615 583.112 182.926C584.79 180.237 585.63 176.967 585.63 173.115C585.63 167.374 583.868 162.976 580.342 159.924C576.901 156.799 572.662 155.236 567.626 155.236ZM553.832 134.162C550.762 134.052 547.529 134.924 544.135 136.776C540.741 138.629 538.26 140.877 536.692 143.519C535.163 146.097 535.089 148.651 536.468 151.179C537.848 153.706 540.016 155.056 542.973 155.227C545.969 155.336 549.164 154.464 552.558 152.611C554.708 151.438 556.559 150.053 558.111 148.458C559.702 146.8 560.741 145.071 561.226 143.269C561.711 141.468 561.491 139.72 560.565 138.024C559.185 135.497 556.941 134.209 553.832 134.162Z" fill="#D59200"/>
</svg>
